<svg xmlns="http://www.w3.org/2000/svg" width="1440" height="1024" viewBox="0 0 1440 1024"><defs>
<linearGradient id="gradBtn" x1="0" y1="0" x2="1" y2="1">
  <stop offset="0" stop-color="#6366f1"/><stop offset="1" stop-color="#8b5cf6"/>
</linearGradient>
<linearGradient id="gradBar" x1="0" y1="0" x2="1" y2="0">
  <stop offset="0" stop-color="#6366f1"/><stop offset="1" stop-color="#8b5cf6"/>
</linearGradient>
<linearGradient id="gradArea" x1="0" y1="0" x2="0" y2="1">
  <stop offset="0" stop-color="#818cf8" stop-opacity="0.32"/>
  <stop offset="1" stop-color="#818cf8" stop-opacity="0"/>
</linearGradient>
<linearGradient id="gradLogin" x1="0" y1="0" x2="1" y2="1">
  <stop offset="0" stop-color="#4338ca"/><stop offset="0.55" stop-color="#5b4fe8"/><stop offset="1" stop-color="#7c3aed"/>
</linearGradient>
<radialGradient id="glowA"><stop offset="0" stop-color="#6366f1" stop-opacity="0.5"/><stop offset="1" stop-color="#6366f1" stop-opacity="0"/></radialGradient>
<radialGradient id="glowB"><stop offset="0" stop-color="#8b5cf6" stop-opacity="0.4"/><stop offset="1" stop-color="#8b5cf6" stop-opacity="0"/></radialGradient>
</defs><rect x="0" y="0" width="1440" height="1024" fill="#f6f7fa"/><circle cx="1220" cy="-40" r="380" fill="url(#glowA)" opacity="0.5"/><rect x="0" y="0" width="232" height="1024" fill="#ffffff"/><line x1="232" y1="0" x2="232" y2="1024" stroke="#e7e9f0" stroke-width="1"/><rect x="20" y="24" width="34" height="34" fill="url(#gradBtn)" rx="10"/><g transform="translate(27 31) scale(0.83)" fill="none" stroke="#ffffff" stroke-width="2.4" stroke-linecap="round" stroke-linejoin="round"><circle cx="12" cy="12" r="8"/><circle cx="12" cy="12" r="4.2"/><circle cx="12" cy="12" r="0.8" fill="currentColor" stroke="none"/></g><text x="64" y="42" font-family="Inter, 'PingFang SC', 'Microsoft YaHei', 'Noto Sans SC', sans-serif" font-size="17" font-weight="700" fill="#15171d">JobHunter</text><text x="20" y="78" font-family="Inter, 'PingFang SC', 'Microsoft YaHei', 'Noto Sans SC', sans-serif" font-size="11" fill="#98a0b0" letter-spacing="1.5">AI 求职操作系统</text><text x="20" y="116" font-family="Inter, 'PingFang SC', 'Microsoft YaHei', 'Noto Sans SC', sans-serif" font-size="10.5" font-weight="600" fill="#98a0b0" letter-spacing="3">工作台</text><g transform="translate(30 144) scale(0.79)" fill="none" stroke="#98a0b0" stroke-width="2.1473684210526316" stroke-linecap="round" stroke-linejoin="round"><rect x="3.5" y="3.5" width="7" height="7" rx="1.8"/><rect x="13.5" y="3.5" width="7" height="7" rx="1.8"/><rect x="3.5" y="13.5" width="7" height="7" rx="1.8"/><rect x="13.5" y="13.5" width="7" height="7" rx="1.8"/></g><text x="60" y="156.5" font-family="Inter, 'PingFang SC', 'Microsoft YaHei', 'Noto Sans SC', sans-serif" font-size="13.5" font-weight="500" fill="#5a6272">仪表盘</text><rect x="12" y="185" width="208" height="42" fill="#edeefe" rx="11"/><rect x="12" y="194" width="3.5" height="24" fill="url(#gradBtn)" rx="2"/><g transform="translate(30 196) scale(0.79)" fill="none" stroke="#4f46e5" stroke-width="2.4" stroke-linecap="round" stroke-linejoin="round"><path d="M6.5 3.5h7.8L19 8.2V19.5a1.2 1.2 0 0 1-1.2 1.2H6.5a1.2 1.2 0 0 1-1.2-1.2V4.7a1.2 1.2 0 0 1 1.2-1.2z"/><path d="M14 3.8V8.5h4.7"/><path d="M8.6 12.5h6.8M8.6 16h4.6"/></g><text x="60" y="208.5" font-family="Inter, 'PingFang SC', 'Microsoft YaHei', 'Noto Sans SC', sans-serif" font-size="13.5" font-weight="600" fill="#4f46e5">简历工作台</text><g transform="translate(30 248) scale(0.79)" fill="none" stroke="#98a0b0" stroke-width="2.1473684210526316" stroke-linecap="round" stroke-linejoin="round"><circle cx="12" cy="12" r="8"/><circle cx="12" cy="12" r="4.2"/><circle cx="12" cy="12" r="0.8" fill="currentColor" stroke="none"/></g><text x="60" y="260.5" font-family="Inter, 'PingFang SC', 'Microsoft YaHei', 'Noto Sans SC', sans-serif" font-size="13.5" font-weight="500" fill="#5a6272">职位中心</text><g transform="translate(30 300) scale(0.79)" fill="none" stroke="#98a0b0" stroke-width="2.1473684210526316" stroke-linecap="round" stroke-linejoin="round"><rect x="3.5" y="4" width="5" height="16" rx="1.6"/><rect x="9.8" y="4" width="5" height="11" rx="1.6"/><rect x="16.1" y="4" width="4.4" height="14" rx="1.6"/></g><text x="60" y="312.5" font-family="Inter, 'PingFang SC', 'Microsoft YaHei', 'Noto Sans SC', sans-serif" font-size="13.5" font-weight="500" fill="#5a6272">投递看板</text><g transform="translate(30 352) scale(0.79)" fill="none" stroke="#98a0b0" stroke-width="2.1473684210526316" stroke-linecap="round" stroke-linejoin="round"><path d="M18.2 15.8H5.8l1.3-2.3c.5-.9.8-2 .8-3.1V9.4a4.1 4.1 0 0 1 8.2 0v1c0 1.1.3 2.2.8 3.1l1.3 2.3z"/><path d="M10.2 18.6a1.9 1.9 0 0 0 3.6 0"/></g><text x="60" y="364.5" font-family="Inter, 'PingFang SC', 'Microsoft YaHei', 'Noto Sans SC', sans-serif" font-size="13.5" font-weight="500" fill="#5a6272">提醒</text><rect x="16" y="420" width="200" height="84" fill="#f1f3f7" rx="14"/><g transform="translate(30 434) scale(0.67)" fill="none" stroke="#4f46e5" stroke-width="2.5500000000000003" stroke-linecap="round" stroke-linejoin="round"><path d="M12 3.5l1.9 5.4 5.4 1.9-5.4 1.9L12 18.1l-1.9-5.4-5.4-1.9 5.4-1.9L12 3.5z"/><path d="M18.8 15.6l.8 2.2 2.2.8-2.2.8-.8 2.2-.8-2.2-2.2-.8 2.2-.8.8-2.2z"/></g><text x="52" y="446" font-family="Inter, 'PingFang SC', 'Microsoft YaHei', 'Noto Sans SC', sans-serif" font-size="11.5" font-weight="600" fill="#5a6272">AI 用量（今日）</text><text x="202" y="446" font-family="Inter, 'PingFang SC', 'Microsoft YaHei', 'Noto Sans SC', sans-serif" font-size="11.5" font-weight="600" fill="#5a6272" text-anchor="end">34/200</text><rect x="30" y="469" width="172" height="6" fill="#f1f3f7" rx="3"/><rect x="30" y="469" width="29.24" height="6" fill="url(#gradBar)" rx="3"/><text x="30" y="492" font-family="Inter, 'PingFang SC', 'Microsoft YaHei', 'Noto Sans SC', sans-serif" font-size="10" fill="#98a0b0">Mock Provider · 离线可用</text><line x1="20" y1="916" x2="212" y2="916" stroke="#e7e9f0" stroke-width="1"/><circle cx="42" cy="948" r="17" fill="url(#gradBtn)"/><text x="42" y="953.99" font-family="Inter, 'PingFang SC', 'Microsoft YaHei', 'Noto Sans SC', sans-serif" font-size="16.15" font-weight="700" fill="#ffffff" text-anchor="middle">李</text><text x="68" y="944" font-family="Inter, 'PingFang SC', 'Microsoft YaHei', 'Noto Sans SC', sans-serif" font-size="12.5" font-weight="600" fill="#15171d">李晓阳</text><text x="68" y="962" font-family="Inter, 'PingFang SC', 'Microsoft YaHei', 'Noto Sans SC', sans-serif" font-size="10.5" fill="#98a0b0">demo@jobhunter.cn</text><g transform="translate(200 938) scale(0.71)" fill="none" stroke="#98a0b0" stroke-width="2.4" stroke-linecap="round" stroke-linejoin="round"><path d="M14 4.5H6.5A1.5 1.5 0 0 0 5 6v12a1.5 1.5 0 0 0 1.5 1.5H14"/><path d="M10.5 12H20M16.8 8.2 20.5 12l-3.7 3.8"/></g><text x="264" y="86" font-family="Inter, 'PingFang SC', 'Microsoft YaHei', 'Noto Sans SC', sans-serif" font-size="23" font-weight="700" fill="#15171d">简历工作台</text><text x="396" y="85" font-family="Inter, 'PingFang SC', 'Microsoft YaHei', 'Noto Sans SC', sans-serif" font-size="12" fill="#98a0b0">上传 txt / md / pdf / docx，AI 自动结构化解析</text><rect x="264" y="120" width="1144" height="76" fill="#ffffff" rx="16" stroke="#e7e9f0" stroke-width="1"/><rect x="288" y="138" width="360" height="40" fill="#ffffff" rx="10" stroke="#d8dbe4" stroke-width="1"/><text x="302" y="162.42" font-family="Inter, 'PingFang SC', 'Microsoft YaHei', 'Noto Sans SC', sans-serif" font-size="13" font-weight="400" fill="#98a0b0">新简历名称，如「前端主简历」</text><g transform="translate(672 0)"><g><rect x="0" y="139" width="141" height="38" rx="10" fill="url(#gradBtn)"/><g transform="translate(14 150) scale(0.67)" fill="none" stroke="#ffffff" stroke-width="2.7" stroke-linecap="round" stroke-linejoin="round"><path d="M12 5v14M5 12h14"/></g><text x="78.5" y="162.59" font-family="Inter, 'PingFang SC', 'Microsoft YaHei', 'Noto Sans SC', sans-serif" font-size="13.5" font-weight="600" fill="#ffffff" text-anchor="middle">新建空白简历</text></g></g><g transform="translate(827 0)"><rect x="0" y="139" width="141" height="38" fill="#ffffff" rx="10" stroke="#d8dbe4" stroke-width="1"/><g transform="translate(14 150) scale(0.67)" fill="none" stroke="#4f46e5" stroke-width="2.7" stroke-linecap="round" stroke-linejoin="round"><path d="M12 16V5M7.5 9 12 4.5 16.5 9"/><path d="M4.5 15.5v3A1.5 1.5 0 0 0 6 20h12a1.5 1.5 0 0 0 1.5-1.5v-3"/></g><text x="78.5" y="162.59" font-family="Inter, 'PingFang SC', 'Microsoft YaHei', 'Noto Sans SC', sans-serif" font-size="13.5" font-weight="600" fill="#4f46e5" text-anchor="middle">上传简历文件</text></g><g transform="translate(1150 146) scale(0.75)" fill="none" stroke="#4f46e5" stroke-width="2.2666666666666666" stroke-linecap="round" stroke-linejoin="round"><path d="M12 3.5l1.9 5.4 5.4 1.9-5.4 1.9L12 18.1l-1.9-5.4-5.4-1.9 5.4-1.9L12 3.5z"/><path d="M18.8 15.6l.8 2.2 2.2.8-2.2.8-.8 2.2-.8-2.2-2.2-.8 2.2-.8.8-2.2z"/></g><text x="1174" y="160" font-family="Inter, 'PingFang SC', 'Microsoft YaHei', 'Noto Sans SC', sans-serif" font-size="11.5" fill="#98a0b0">解析引擎就绪</text><rect x="264" y="220" width="368" height="250" fill="#ffffff" rx="16" stroke="#e7e9f0" stroke-width="1"/><rect x="288" y="244" width="40" height="40" fill="#edeefe" rx="12"/><g transform="translate(297 253) scale(0.92)" fill="none" stroke="#4f46e5" stroke-width="1.8545454545454545" stroke-linecap="round" stroke-linejoin="round"><path d="M6.5 3.5h7.8L19 8.2V19.5a1.2 1.2 0 0 1-1.2 1.2H6.5a1.2 1.2 0 0 1-1.2-1.2V4.7a1.2 1.2 0 0 1 1.2-1.2z"/><path d="M14 3.8V8.5h4.7"/><path d="M8.6 12.5h6.8M8.6 16h4.6"/></g><text x="340" y="263" font-family="Inter, 'PingFang SC', 'Microsoft YaHei', 'Noto Sans SC', sans-serif" font-size="14.5" font-weight="700" fill="#15171d">前端主简历</text><rect x="555" y="247" width="51" height="22" fill="#fcf3e2" rx="11" stroke="#f2e0ba" stroke-width="1"/><text x="580.5" y="261.74" font-family="Inter, 'PingFang SC', 'Microsoft YaHei', 'Noto Sans SC', sans-serif" font-size="11" font-weight="600" fill="#d97706" text-anchor="middle">主简历</text><text x="340" y="283" font-family="Inter, 'PingFang SC', 'Microsoft YaHei', 'Noto Sans SC', sans-serif" font-size="11" fill="#98a0b0">更新于 2026/8/30 14:32</text><rect x="288" y="310" width="75.5" height="24" fill="#e4f6ee" rx="12" stroke="#c2e8d6" stroke-width="1"/><text x="325.75" y="325.91" font-family="Inter, 'PingFang SC', 'Microsoft YaHei', 'Noto Sans SC', sans-serif" font-size="11.5" font-weight="600" fill="#059669" text-anchor="middle">AI 评分 82</text><rect x="288" y="349" width="48.36" height="22" fill="#f1f3f7" rx="11" stroke="#e7e9f0" stroke-width="1"/><text x="312.18" y="363.74" font-family="Inter, 'PingFang SC', 'Microsoft YaHei', 'Noto Sans SC', sans-serif" font-size="11" font-weight="500" fill="#5a6272" text-anchor="middle">React</text><rect x="346.36" y="349" width="78.72" height="22" fill="#f1f3f7" rx="11" stroke="#e7e9f0" stroke-width="1"/><text x="385.72" y="363.74" font-family="Inter, 'PingFang SC', 'Microsoft YaHei', 'Noto Sans SC', sans-serif" font-size="11" font-weight="500" fill="#5a6272" text-anchor="middle">TypeScript</text><rect x="435.08" y="349" width="57.49" height="22" fill="#f1f3f7" rx="11" stroke="#e7e9f0" stroke-width="1"/><text x="463.83" y="363.74" font-family="Inter, 'PingFang SC', 'Microsoft YaHei', 'Noto Sans SC', sans-serif" font-size="11" font-weight="500" fill="#5a6272" text-anchor="middle">Node.js</text><line x1="288" y1="390" x2="608" y2="390" stroke="#e7e9f0" stroke-width="1"/><g transform="translate(288 424)"><rect x="0" y="-16" width="149.37" height="32" fill="#edeefe" rx="10" stroke="#d8ddfc" stroke-width="1"/><g transform="translate(14 -8) scale(0.67)" fill="none" stroke="#4f46e5" stroke-width="2.7" stroke-linecap="round" stroke-linejoin="round"><path d="M12 3.5l1.9 5.4 5.4 1.9-5.4 1.9L12 18.1l-1.9-5.4-5.4-1.9 5.4-1.9L12 3.5z"/><path d="M18.8 15.6l.8 2.2 2.2.8-2.2.8-.8 2.2-.8-2.2-2.2-.8 2.2-.8.8-2.2z"/></g><text x="82.69" y="4.59" font-family="Inter, 'PingFang SC', 'Microsoft YaHei', 'Noto Sans SC', sans-serif" font-size="13.5" font-weight="600" fill="#4f46e5" text-anchor="middle">编辑 / AI 优化</text></g><rect x="445.37" y="408" width="78" height="32" fill="#f1f3f7" rx="16" stroke="#e7e9f0" stroke-width="1"/><text x="484.37" y="428.08" font-family="Inter, 'PingFang SC', 'Microsoft YaHei', 'Noto Sans SC', sans-serif" font-size="12" font-weight="500" fill="#5a6272" text-anchor="middle">设为主简历</text><rect x="531.37" y="408" width="42" height="32" fill="#f1f3f7" rx="16" stroke="#e7e9f0" stroke-width="1"/><text x="552.37" y="428.08" font-family="Inter, 'PingFang SC', 'Microsoft YaHei', 'Noto Sans SC', sans-serif" font-size="12" font-weight="500" fill="#dc2626" text-anchor="middle">删除</text><rect x="652" y="220" width="368" height="250" fill="#ffffff" rx="16" stroke="#e7e9f0" stroke-width="1"/><rect x="676" y="244" width="40" height="40" fill="#edeefe" rx="12"/><g transform="translate(685 253) scale(0.92)" fill="none" stroke="#4f46e5" stroke-width="1.8545454545454545" stroke-linecap="round" stroke-linejoin="round"><path d="M6.5 3.5h7.8L19 8.2V19.5a1.2 1.2 0 0 1-1.2 1.2H6.5a1.2 1.2 0 0 1-1.2-1.2V4.7a1.2 1.2 0 0 1 1.2-1.2z"/><path d="M14 3.8V8.5h4.7"/><path d="M8.6 12.5h6.8M8.6 16h4.6"/></g><text x="728" y="263" font-family="Inter, 'PingFang SC', 'Microsoft YaHei', 'Noto Sans SC', sans-serif" font-size="14.5" font-weight="700" fill="#15171d">前端-字节定制版</text><text x="728" y="283" font-family="Inter, 'PingFang SC', 'Microsoft YaHei', 'Noto Sans SC', sans-serif" font-size="11" fill="#98a0b0">更新于 2026/8/29 20:15</text><rect x="676" y="310" width="75.5" height="24" fill="#e4f6ee" rx="12" stroke="#c2e8d6" stroke-width="1"/><text x="713.75" y="325.91" font-family="Inter, 'PingFang SC', 'Microsoft YaHei', 'Noto Sans SC', sans-serif" font-size="11.5" font-weight="600" fill="#059669" text-anchor="middle">AI 评分 86</text><rect x="676" y="349" width="48.36" height="22" fill="#f1f3f7" rx="11" stroke="#e7e9f0" stroke-width="1"/><text x="700.18" y="363.74" font-family="Inter, 'PingFang SC', 'Microsoft YaHei', 'Noto Sans SC', sans-serif" font-size="11" font-weight="500" fill="#5a6272" text-anchor="middle">React</text><rect x="734.36" y="349" width="62" height="22" fill="#f1f3f7" rx="11" stroke="#e7e9f0" stroke-width="1"/><text x="765.36" y="363.74" font-family="Inter, 'PingFang SC', 'Microsoft YaHei', 'Noto Sans SC', sans-serif" font-size="11" font-weight="500" fill="#5a6272" text-anchor="middle">性能优化</text><rect x="806.36" y="349" width="51" height="22" fill="#f1f3f7" rx="11" stroke="#e7e9f0" stroke-width="1"/><text x="831.86" y="363.74" font-family="Inter, 'PingFang SC', 'Microsoft YaHei', 'Noto Sans SC', sans-serif" font-size="11" font-weight="500" fill="#5a6272" text-anchor="middle">工程化</text><line x1="676" y1="390" x2="996" y2="390" stroke="#e7e9f0" stroke-width="1"/><g transform="translate(676 424)"><rect x="0" y="-16" width="149.37" height="32" fill="#edeefe" rx="10" stroke="#d8ddfc" stroke-width="1"/><g transform="translate(14 -8) scale(0.67)" fill="none" stroke="#4f46e5" stroke-width="2.7" stroke-linecap="round" stroke-linejoin="round"><path d="M12 3.5l1.9 5.4 5.4 1.9-5.4 1.9L12 18.1l-1.9-5.4-5.4-1.9 5.4-1.9L12 3.5z"/><path d="M18.8 15.6l.8 2.2 2.2.8-2.2.8-.8 2.2-.8-2.2-2.2-.8 2.2-.8.8-2.2z"/></g><text x="82.69" y="4.59" font-family="Inter, 'PingFang SC', 'Microsoft YaHei', 'Noto Sans SC', sans-serif" font-size="13.5" font-weight="600" fill="#4f46e5" text-anchor="middle">编辑 / AI 优化</text></g><rect x="833.37" y="408" width="78" height="32" fill="#f1f3f7" rx="16" stroke="#e7e9f0" stroke-width="1"/><text x="872.37" y="428.08" font-family="Inter, 'PingFang SC', 'Microsoft YaHei', 'Noto Sans SC', sans-serif" font-size="12" font-weight="500" fill="#5a6272" text-anchor="middle">设为主简历</text><rect x="919.37" y="408" width="42" height="32" fill="#f1f3f7" rx="16" stroke="#e7e9f0" stroke-width="1"/><text x="940.37" y="428.08" font-family="Inter, 'PingFang SC', 'Microsoft YaHei', 'Noto Sans SC', sans-serif" font-size="12" font-weight="500" fill="#dc2626" text-anchor="middle">删除</text><rect x="1040" y="220" width="368" height="250" fill="#ffffff" rx="16" stroke="#e7e9f0" stroke-width="1"/><rect x="1064" y="244" width="40" height="40" fill="#edeefe" rx="12"/><g transform="translate(1073 253) scale(0.92)" fill="none" stroke="#4f46e5" stroke-width="1.8545454545454545" stroke-linecap="round" stroke-linejoin="round"><path d="M6.5 3.5h7.8L19 8.2V19.5a1.2 1.2 0 0 1-1.2 1.2H6.5a1.2 1.2 0 0 1-1.2-1.2V4.7a1.2 1.2 0 0 1 1.2-1.2z"/><path d="M14 3.8V8.5h4.7"/><path d="M8.6 12.5h6.8M8.6 16h4.6"/></g><text x="1116" y="263" font-family="Inter, 'PingFang SC', 'Microsoft YaHei', 'Noto Sans SC', sans-serif" font-size="14.5" font-weight="700" fill="#15171d">全栈方向简历</text><text x="1116" y="283" font-family="Inter, 'PingFang SC', 'Microsoft YaHei', 'Noto Sans SC', sans-serif" font-size="11" fill="#98a0b0">更新于 2026/8/28 11:08</text><rect x="1064" y="310" width="75.5" height="24" fill="#fcf3e2" rx="12" stroke="#f2e0ba" stroke-width="1"/><text x="1101.75" y="325.91" font-family="Inter, 'PingFang SC', 'Microsoft YaHei', 'Noto Sans SC', sans-serif" font-size="11.5" font-weight="600" fill="#d97706" text-anchor="middle">AI 评分 74</text><rect x="1064" y="349" width="57.49" height="22" fill="#f1f3f7" rx="11" stroke="#e7e9f0" stroke-width="1"/><text x="1092.74" y="363.74" font-family="Inter, 'PingFang SC', 'Microsoft YaHei', 'Noto Sans SC', sans-serif" font-size="11" font-weight="500" fill="#5a6272" text-anchor="middle">Nest.js</text><rect x="1131.49" y="349" width="81.14" height="22" fill="#f1f3f7" rx="11" stroke="#e7e9f0" stroke-width="1"/><text x="1172.06" y="363.74" font-family="Inter, 'PingFang SC', 'Microsoft YaHei', 'Noto Sans SC', sans-serif" font-size="11" font-weight="500" fill="#5a6272" text-anchor="middle">PostgreSQL</text><rect x="1222.63" y="349" width="54.19" height="22" fill="#f1f3f7" rx="11" stroke="#e7e9f0" stroke-width="1"/><text x="1249.73" y="363.74" font-family="Inter, 'PingFang SC', 'Microsoft YaHei', 'Noto Sans SC', sans-serif" font-size="11" font-weight="500" fill="#5a6272" text-anchor="middle">Docker</text><line x1="1064" y1="390" x2="1384" y2="390" stroke="#e7e9f0" stroke-width="1"/><g transform="translate(1064 424)"><rect x="0" y="-16" width="149.37" height="32" fill="#edeefe" rx="10" stroke="#d8ddfc" stroke-width="1"/><g transform="translate(14 -8) scale(0.67)" fill="none" stroke="#4f46e5" stroke-width="2.7" stroke-linecap="round" stroke-linejoin="round"><path d="M12 3.5l1.9 5.4 5.4 1.9-5.4 1.9L12 18.1l-1.9-5.4-5.4-1.9 5.4-1.9L12 3.5z"/><path d="M18.8 15.6l.8 2.2 2.2.8-2.2.8-.8 2.2-.8-2.2-2.2-.8 2.2-.8.8-2.2z"/></g><text x="82.69" y="4.59" font-family="Inter, 'PingFang SC', 'Microsoft YaHei', 'Noto Sans SC', sans-serif" font-size="13.5" font-weight="600" fill="#4f46e5" text-anchor="middle">编辑 / AI 优化</text></g><rect x="1221.37" y="408" width="78" height="32" fill="#f1f3f7" rx="16" stroke="#e7e9f0" stroke-width="1"/><text x="1260.37" y="428.08" font-family="Inter, 'PingFang SC', 'Microsoft YaHei', 'Noto Sans SC', sans-serif" font-size="12" font-weight="500" fill="#5a6272" text-anchor="middle">设为主简历</text><rect x="1307.37" y="408" width="42" height="32" fill="#f1f3f7" rx="16" stroke="#e7e9f0" stroke-width="1"/><text x="1328.37" y="428.08" font-family="Inter, 'PingFang SC', 'Microsoft YaHei', 'Noto Sans SC', sans-serif" font-size="12" font-weight="500" fill="#dc2626" text-anchor="middle">删除</text><rect x="264" y="486" width="368" height="250" fill="#ffffff" rx="16" stroke="#e7e9f0" stroke-width="1"/><rect x="288" y="510" width="40" height="40" fill="#edeefe" rx="12"/><g transform="translate(297 519) scale(0.92)" fill="none" stroke="#4f46e5" stroke-width="1.8545454545454545" stroke-linecap="round" stroke-linejoin="round"><path d="M6.5 3.5h7.8L19 8.2V19.5a1.2 1.2 0 0 1-1.2 1.2H6.5a1.2 1.2 0 0 1-1.2-1.2V4.7a1.2 1.2 0 0 1 1.2-1.2z"/><path d="M14 3.8V8.5h4.7"/><path d="M8.6 12.5h6.8M8.6 16h4.6"/></g><text x="340" y="529" font-family="Inter, 'PingFang SC', 'Microsoft YaHei', 'Noto Sans SC', sans-serif" font-size="14.5" font-weight="700" fill="#15171d">后端方向简历</text><text x="340" y="549" font-family="Inter, 'PingFang SC', 'Microsoft YaHei', 'Noto Sans SC', sans-serif" font-size="11" fill="#98a0b0">更新于 2026/8/26 09:40</text><rect x="288" y="576" width="75.5" height="24" fill="#fcf3e2" rx="12" stroke="#f2e0ba" stroke-width="1"/><text x="325.75" y="591.91" font-family="Inter, 'PingFang SC', 'Microsoft YaHei', 'Noto Sans SC', sans-serif" font-size="11.5" font-weight="600" fill="#d97706" text-anchor="middle">AI 评分 68</text><rect x="288" y="615" width="57.49" height="22" fill="#f1f3f7" rx="11" stroke="#e7e9f0" stroke-width="1"/><text x="316.75" y="629.74" font-family="Inter, 'PingFang SC', 'Microsoft YaHei', 'Noto Sans SC', sans-serif" font-size="11" font-weight="500" fill="#5a6272" text-anchor="middle">Node.js</text><rect x="355.49" y="615" width="48.36" height="22" fill="#f1f3f7" rx="11" stroke="#e7e9f0" stroke-width="1"/><text x="379.67" y="629.74" font-family="Inter, 'PingFang SC', 'Microsoft YaHei', 'Noto Sans SC', sans-serif" font-size="11" font-weight="500" fill="#5a6272" text-anchor="middle">Redis</text><rect x="413.85" y="615" width="51.99" height="22" fill="#f1f3f7" rx="11" stroke="#e7e9f0" stroke-width="1"/><text x="439.85" y="629.74" font-family="Inter, 'PingFang SC', 'Microsoft YaHei', 'Noto Sans SC', sans-serif" font-size="11" font-weight="500" fill="#5a6272" text-anchor="middle">MySQL</text><line x1="288" y1="656" x2="608" y2="656" stroke="#e7e9f0" stroke-width="1"/><g transform="translate(288 690)"><rect x="0" y="-16" width="149.37" height="32" fill="#edeefe" rx="10" stroke="#d8ddfc" stroke-width="1"/><g transform="translate(14 -8) scale(0.67)" fill="none" stroke="#4f46e5" stroke-width="2.7" stroke-linecap="round" stroke-linejoin="round"><path d="M12 3.5l1.9 5.4 5.4 1.9-5.4 1.9L12 18.1l-1.9-5.4-5.4-1.9 5.4-1.9L12 3.5z"/><path d="M18.8 15.6l.8 2.2 2.2.8-2.2.8-.8 2.2-.8-2.2-2.2-.8 2.2-.8.8-2.2z"/></g><text x="82.69" y="4.59" font-family="Inter, 'PingFang SC', 'Microsoft YaHei', 'Noto Sans SC', sans-serif" font-size="13.5" font-weight="600" fill="#4f46e5" text-anchor="middle">编辑 / AI 优化</text></g><rect x="445.37" y="674" width="78" height="32" fill="#f1f3f7" rx="16" stroke="#e7e9f0" stroke-width="1"/><text x="484.37" y="694.08" font-family="Inter, 'PingFang SC', 'Microsoft YaHei', 'Noto Sans SC', sans-serif" font-size="12" font-weight="500" fill="#5a6272" text-anchor="middle">设为主简历</text><rect x="531.37" y="674" width="42" height="32" fill="#f1f3f7" rx="16" stroke="#e7e9f0" stroke-width="1"/><text x="552.37" y="694.08" font-family="Inter, 'PingFang SC', 'Microsoft YaHei', 'Noto Sans SC', sans-serif" font-size="12" font-weight="500" fill="#dc2626" text-anchor="middle">删除</text><rect x="652" y="486" width="368" height="250" fill="#ffffff" rx="16" stroke="#e7e9f0" stroke-width="1"/><rect x="676" y="510" width="40" height="40" fill="#edeefe" rx="12"/><g transform="translate(685 519) scale(0.92)" fill="none" stroke="#4f46e5" stroke-width="1.8545454545454545" stroke-linecap="round" stroke-linejoin="round"><path d="M6.5 3.5h7.8L19 8.2V19.5a1.2 1.2 0 0 1-1.2 1.2H6.5a1.2 1.2 0 0 1-1.2-1.2V4.7a1.2 1.2 0 0 1 1.2-1.2z"/><path d="M14 3.8V8.5h4.7"/><path d="M8.6 12.5h6.8M8.6 16h4.6"/></g><text x="728" y="529" font-family="Inter, 'PingFang SC', 'Microsoft YaHei', 'Noto Sans SC', sans-serif" font-size="14.5" font-weight="700" fill="#15171d">实习生简历</text><text x="728" y="549" font-family="Inter, 'PingFang SC', 'Microsoft YaHei', 'Noto Sans SC', sans-serif" font-size="11" fill="#98a0b0">更新于 2026/8/20 16:22</text><rect x="676" y="576" width="75.5" height="24" fill="#fcf3e2" rx="12" stroke="#f2e0ba" stroke-width="1"/><text x="713.75" y="591.91" font-family="Inter, 'PingFang SC', 'Microsoft YaHei', 'Noto Sans SC', sans-serif" font-size="11.5" font-weight="600" fill="#d97706" text-anchor="middle">AI 评分 63</text><rect x="676" y="615" width="78.72" height="22" fill="#f1f3f7" rx="11" stroke="#e7e9f0" stroke-width="1"/><text x="715.36" y="629.74" font-family="Inter, 'PingFang SC', 'Microsoft YaHei', 'Noto Sans SC', sans-serif" font-size="11" font-weight="500" fill="#5a6272" text-anchor="middle">JavaScript</text><rect x="764.72" y="615" width="43.08" height="22" fill="#f1f3f7" rx="11" stroke="#e7e9f0" stroke-width="1"/><text x="786.26" y="629.74" font-family="Inter, 'PingFang SC', 'Microsoft YaHei', 'Noto Sans SC', sans-serif" font-size="11" font-weight="500" fill="#5a6272" text-anchor="middle">Vue2</text><rect x="817.8" y="615" width="31.42" height="22" fill="#f1f3f7" rx="11" stroke="#e7e9f0" stroke-width="1"/><text x="833.51" y="629.74" font-family="Inter, 'PingFang SC', 'Microsoft YaHei', 'Noto Sans SC', sans-serif" font-size="11" font-weight="500" fill="#5a6272" text-anchor="middle">H5</text><line x1="676" y1="656" x2="996" y2="656" stroke="#e7e9f0" stroke-width="1"/><g transform="translate(676 690)"><rect x="0" y="-16" width="149.37" height="32" fill="#edeefe" rx="10" stroke="#d8ddfc" stroke-width="1"/><g transform="translate(14 -8) scale(0.67)" fill="none" stroke="#4f46e5" stroke-width="2.7" stroke-linecap="round" stroke-linejoin="round"><path d="M12 3.5l1.9 5.4 5.4 1.9-5.4 1.9L12 18.1l-1.9-5.4-5.4-1.9 5.4-1.9L12 3.5z"/><path d="M18.8 15.6l.8 2.2 2.2.8-2.2.8-.8 2.2-.8-2.2-2.2-.8 2.2-.8.8-2.2z"/></g><text x="82.69" y="4.59" font-family="Inter, 'PingFang SC', 'Microsoft YaHei', 'Noto Sans SC', sans-serif" font-size="13.5" font-weight="600" fill="#4f46e5" text-anchor="middle">编辑 / AI 优化</text></g><rect x="833.37" y="674" width="78" height="32" fill="#f1f3f7" rx="16" stroke="#e7e9f0" stroke-width="1"/><text x="872.37" y="694.08" font-family="Inter, 'PingFang SC', 'Microsoft YaHei', 'Noto Sans SC', sans-serif" font-size="12" font-weight="500" fill="#5a6272" text-anchor="middle">设为主简历</text><rect x="919.37" y="674" width="42" height="32" fill="#f1f3f7" rx="16" stroke="#e7e9f0" stroke-width="1"/><text x="940.37" y="694.08" font-family="Inter, 'PingFang SC', 'Microsoft YaHei', 'Noto Sans SC', sans-serif" font-size="12" font-weight="500" fill="#dc2626" text-anchor="middle">删除</text><rect x="1040" y="486" width="368" height="250" fill="#ffffff" rx="16" stroke="#e7e9f0" stroke-width="1"/><rect x="1064" y="510" width="40" height="40" fill="#edeefe" rx="12"/><g transform="translate(1073 519) scale(0.92)" fill="none" stroke="#4f46e5" stroke-width="1.8545454545454545" stroke-linecap="round" stroke-linejoin="round"><path d="M6.5 3.5h7.8L19 8.2V19.5a1.2 1.2 0 0 1-1.2 1.2H6.5a1.2 1.2 0 0 1-1.2-1.2V4.7a1.2 1.2 0 0 1 1.2-1.2z"/><path d="M14 3.8V8.5h4.7"/><path d="M8.6 12.5h6.8M8.6 16h4.6"/></g><text x="1116" y="529" font-family="Inter, 'PingFang SC', 'Microsoft YaHei', 'Noto Sans SC', sans-serif" font-size="14.5" font-weight="700" fill="#15171d">历史版本 v1</text><text x="1116" y="549" font-family="Inter, 'PingFang SC', 'Microsoft YaHei', 'Noto Sans SC', sans-serif" font-size="11" fill="#98a0b0">更新于 2026/8/12 10:05</text><rect x="1064" y="576" width="75.5" height="24" fill="#fcf3e2" rx="12" stroke="#f2e0ba" stroke-width="1"/><text x="1101.75" y="591.91" font-family="Inter, 'PingFang SC', 'Microsoft YaHei', 'Noto Sans SC', sans-serif" font-size="11.5" font-weight="600" fill="#d97706" text-anchor="middle">AI 评分 55</text><rect x="1064" y="615" width="78.72" height="22" fill="#f1f3f7" rx="11" stroke="#e7e9f0" stroke-width="1"/><text x="1103.36" y="629.74" font-family="Inter, 'PingFang SC', 'Microsoft YaHei', 'Noto Sans SC', sans-serif" font-size="11" font-weight="500" fill="#5a6272" text-anchor="middle">JavaScript</text><rect x="1152.72" y="615" width="39.12" height="22" fill="#f1f3f7" rx="11" stroke="#e7e9f0" stroke-width="1"/><text x="1172.28" y="629.74" font-family="Inter, 'PingFang SC', 'Microsoft YaHei', 'Noto Sans SC', sans-serif" font-size="11" font-weight="500" fill="#5a6272" text-anchor="middle">CSS</text><line x1="1064" y1="656" x2="1384" y2="656" stroke="#e7e9f0" stroke-width="1"/><g transform="translate(1064 690)"><rect x="0" y="-16" width="149.37" height="32" fill="#edeefe" rx="10" stroke="#d8ddfc" stroke-width="1"/><g transform="translate(14 -8) scale(0.67)" fill="none" stroke="#4f46e5" stroke-width="2.7" stroke-linecap="round" stroke-linejoin="round"><path d="M12 3.5l1.9 5.4 5.4 1.9-5.4 1.9L12 18.1l-1.9-5.4-5.4-1.9 5.4-1.9L12 3.5z"/><path d="M18.8 15.6l.8 2.2 2.2.8-2.2.8-.8 2.2-.8-2.2-2.2-.8 2.2-.8.8-2.2z"/></g><text x="82.69" y="4.59" font-family="Inter, 'PingFang SC', 'Microsoft YaHei', 'Noto Sans SC', sans-serif" font-size="13.5" font-weight="600" fill="#4f46e5" text-anchor="middle">编辑 / AI 优化</text></g><rect x="1221.37" y="674" width="78" height="32" fill="#f1f3f7" rx="16" stroke="#e7e9f0" stroke-width="1"/><text x="1260.37" y="694.08" font-family="Inter, 'PingFang SC', 'Microsoft YaHei', 'Noto Sans SC', sans-serif" font-size="12" font-weight="500" fill="#5a6272" text-anchor="middle">设为主简历</text><rect x="1307.37" y="674" width="42" height="32" fill="#f1f3f7" rx="16" stroke="#e7e9f0" stroke-width="1"/><text x="1328.37" y="694.08" font-family="Inter, 'PingFang SC', 'Microsoft YaHei', 'Noto Sans SC', sans-serif" font-size="12" font-weight="500" fill="#dc2626" text-anchor="middle">删除</text><rect x="264" y="752" width="368" height="250" fill="#ffffff" rx="16" stroke="#e7e9f0" stroke-width="1"/><rect x="288" y="776" width="40" height="40" fill="#edeefe" rx="12"/><g transform="translate(297 785) scale(0.92)" fill="none" stroke="#4f46e5" stroke-width="1.8545454545454545" stroke-linecap="round" stroke-linejoin="round"><path d="M6.5 3.5h7.8L19 8.2V19.5a1.2 1.2 0 0 1-1.2 1.2H6.5a1.2 1.2 0 0 1-1.2-1.2V4.7a1.2 1.2 0 0 1 1.2-1.2z"/><path d="M14 3.8V8.5h4.7"/><path d="M8.6 12.5h6.8M8.6 16h4.6"/></g><text x="340" y="795" font-family="Inter, 'PingFang SC', 'Microsoft YaHei', 'Noto Sans SC', sans-serif" font-size="14.5" font-weight="700" fill="#15171d">运营方向简历</text><text x="340" y="815" font-family="Inter, 'PingFang SC', 'Microsoft YaHei', 'Noto Sans SC', sans-serif" font-size="11" fill="#98a0b0">更新于 2026/8/8 18:44</text><rect x="288" y="842" width="75.5" height="24" fill="#fcf3e2" rx="12" stroke="#f2e0ba" stroke-width="1"/><text x="325.75" y="857.91" font-family="Inter, 'PingFang SC', 'Microsoft YaHei', 'Noto Sans SC', sans-serif" font-size="11.5" font-weight="600" fill="#d97706" text-anchor="middle">AI 评分 58</text><rect x="288" y="881" width="78.72" height="22" fill="#f1f3f7" rx="11" stroke="#e7e9f0" stroke-width="1"/><text x="327.36" y="895.74" font-family="Inter, 'PingFang SC', 'Microsoft YaHei', 'Noto Sans SC', sans-serif" font-size="11" font-weight="500" fill="#5a6272" text-anchor="middle">JavaScript</text><rect x="376.72" y="881" width="51" height="22" fill="#f1f3f7" rx="11" stroke="#e7e9f0" stroke-width="1"/><text x="402.22" y="895.74" font-family="Inter, 'PingFang SC', 'Microsoft YaHei', 'Noto Sans SC', sans-serif" font-size="11" font-weight="500" fill="#5a6272" text-anchor="middle">小程序</text><line x1="288" y1="922" x2="608" y2="922" stroke="#e7e9f0" stroke-width="1"/><g transform="translate(288 956)"><rect x="0" y="-16" width="149.37" height="32" fill="#edeefe" rx="10" stroke="#d8ddfc" stroke-width="1"/><g transform="translate(14 -8) scale(0.67)" fill="none" stroke="#4f46e5" stroke-width="2.7" stroke-linecap="round" stroke-linejoin="round"><path d="M12 3.5l1.9 5.4 5.4 1.9-5.4 1.9L12 18.1l-1.9-5.4-5.4-1.9 5.4-1.9L12 3.5z"/><path d="M18.8 15.6l.8 2.2 2.2.8-2.2.8-.8 2.2-.8-2.2-2.2-.8 2.2-.8.8-2.2z"/></g><text x="82.69" y="4.59" font-family="Inter, 'PingFang SC', 'Microsoft YaHei', 'Noto Sans SC', sans-serif" font-size="13.5" font-weight="600" fill="#4f46e5" text-anchor="middle">编辑 / AI 优化</text></g><rect x="445.37" y="940" width="78" height="32" fill="#f1f3f7" rx="16" stroke="#e7e9f0" stroke-width="1"/><text x="484.37" y="960.08" font-family="Inter, 'PingFang SC', 'Microsoft YaHei', 'Noto Sans SC', sans-serif" font-size="12" font-weight="500" fill="#5a6272" text-anchor="middle">设为主简历</text><rect x="531.37" y="940" width="42" height="32" fill="#f1f3f7" rx="16" stroke="#e7e9f0" stroke-width="1"/><text x="552.37" y="960.08" font-family="Inter, 'PingFang SC', 'Microsoft YaHei', 'Noto Sans SC', sans-serif" font-size="12" font-weight="500" fill="#dc2626" text-anchor="middle">删除</text><rect x="652" y="752" width="368" height="250" fill="#ffffff" rx="16" stroke="#e7e9f0" stroke-width="1"/><rect x="676" y="776" width="40" height="40" fill="#edeefe" rx="12"/><g transform="translate(685 785) scale(0.92)" fill="none" stroke="#4f46e5" stroke-width="1.8545454545454545" stroke-linecap="round" stroke-linejoin="round"><path d="M6.5 3.5h7.8L19 8.2V19.5a1.2 1.2 0 0 1-1.2 1.2H6.5a1.2 1.2 0 0 1-1.2-1.2V4.7a1.2 1.2 0 0 1 1.2-1.2z"/><path d="M14 3.8V8.5h4.7"/><path d="M8.6 12.5h6.8M8.6 16h4.6"/></g><text x="728" y="795" font-family="Inter, 'PingFang SC', 'Microsoft YaHei', 'Noto Sans SC', sans-serif" font-size="14.5" font-weight="700" fill="#15171d">英文简历 EN</text><text x="728" y="815" font-family="Inter, 'PingFang SC', 'Microsoft YaHei', 'Noto Sans SC', sans-serif" font-size="11" fill="#98a0b0">更新于 2026/7/30 09:12</text><rect x="676" y="842" width="75.5" height="24" fill="#fcf3e2" rx="12" stroke="#f2e0ba" stroke-width="1"/><text x="713.75" y="857.91" font-family="Inter, 'PingFang SC', 'Microsoft YaHei', 'Noto Sans SC', sans-serif" font-size="11.5" font-weight="600" fill="#d97706" text-anchor="middle">AI 评分 71</text><rect x="676" y="881" width="48.36" height="22" fill="#f1f3f7" rx="11" stroke="#e7e9f0" stroke-width="1"/><text x="700.18" y="895.74" font-family="Inter, 'PingFang SC', 'Microsoft YaHei', 'Noto Sans SC', sans-serif" font-size="11" font-weight="500" fill="#5a6272" text-anchor="middle">React</text><rect x="734.36" y="881" width="60.02" height="22" fill="#f1f3f7" rx="11" stroke="#e7e9f0" stroke-width="1"/><text x="764.37" y="895.74" font-family="Inter, 'PingFang SC', 'Microsoft YaHei', 'Noto Sans SC', sans-serif" font-size="11" font-weight="500" fill="#5a6272" text-anchor="middle">English</text><line x1="676" y1="922" x2="996" y2="922" stroke="#e7e9f0" stroke-width="1"/><g transform="translate(676 956)"><rect x="0" y="-16" width="149.37" height="32" fill="#edeefe" rx="10" stroke="#d8ddfc" stroke-width="1"/><g transform="translate(14 -8) scale(0.67)" fill="none" stroke="#4f46e5" stroke-width="2.7" stroke-linecap="round" stroke-linejoin="round"><path d="M12 3.5l1.9 5.4 5.4 1.9-5.4 1.9L12 18.1l-1.9-5.4-5.4-1.9 5.4-1.9L12 3.5z"/><path d="M18.8 15.6l.8 2.2 2.2.8-2.2.8-.8 2.2-.8-2.2-2.2-.8 2.2-.8.8-2.2z"/></g><text x="82.69" y="4.59" font-family="Inter, 'PingFang SC', 'Microsoft YaHei', 'Noto Sans SC', sans-serif" font-size="13.5" font-weight="600" fill="#4f46e5" text-anchor="middle">编辑 / AI 优化</text></g><rect x="833.37" y="940" width="78" height="32" fill="#f1f3f7" rx="16" stroke="#e7e9f0" stroke-width="1"/><text x="872.37" y="960.08" font-family="Inter, 'PingFang SC', 'Microsoft YaHei', 'Noto Sans SC', sans-serif" font-size="12" font-weight="500" fill="#5a6272" text-anchor="middle">设为主简历</text><rect x="919.37" y="940" width="42" height="32" fill="#f1f3f7" rx="16" stroke="#e7e9f0" stroke-width="1"/><text x="940.37" y="960.08" font-family="Inter, 'PingFang SC', 'Microsoft YaHei', 'Noto Sans SC', sans-serif" font-size="12" font-weight="500" fill="#dc2626" text-anchor="middle">删除</text><rect x="1040" y="752" width="368" height="250" fill="#ffffff" rx="16" stroke="#e7e9f0" stroke-width="1"/><rect x="1064" y="776" width="40" height="40" fill="#edeefe" rx="12"/><g transform="translate(1073 785) scale(0.92)" fill="none" stroke="#4f46e5" stroke-width="1.8545454545454545" stroke-linecap="round" stroke-linejoin="round"><path d="M6.5 3.5h7.8L19 8.2V19.5a1.2 1.2 0 0 1-1.2 1.2H6.5a1.2 1.2 0 0 1-1.2-1.2V4.7a1.2 1.2 0 0 1 1.2-1.2z"/><path d="M14 3.8V8.5h4.7"/><path d="M8.6 12.5h6.8M8.6 16h4.6"/></g><text x="1116" y="795" font-family="Inter, 'PingFang SC', 'Microsoft YaHei', 'Noto Sans SC', sans-serif" font-size="14.5" font-weight="700" fill="#15171d">校招备用简历</text><text x="1116" y="815" font-family="Inter, 'PingFang SC', 'Microsoft YaHei', 'Noto Sans SC', sans-serif" font-size="11" fill="#98a0b0">更新于 2026/7/22 14:50</text><rect x="1064" y="842" width="75.5" height="24" fill="#fdecec" rx="12" stroke="#f5cfcd" stroke-width="1"/><text x="1101.75" y="857.91" font-family="Inter, 'PingFang SC', 'Microsoft YaHei', 'Noto Sans SC', sans-serif" font-size="11.5" font-weight="600" fill="#dc2626" text-anchor="middle">AI 评分 49</text><rect x="1064" y="881" width="36.04" height="22" fill="#f1f3f7" rx="11" stroke="#e7e9f0" stroke-width="1"/><text x="1082.02" y="895.74" font-family="Inter, 'PingFang SC', 'Microsoft YaHei', 'Noto Sans SC', sans-serif" font-size="11" font-weight="500" fill="#5a6272" text-anchor="middle">C++</text><rect x="1110.04" y="881" width="62" height="22" fill="#f1f3f7" rx="11" stroke="#e7e9f0" stroke-width="1"/><text x="1141.04" y="895.74" font-family="Inter, 'PingFang SC', 'Microsoft YaHei', 'Noto Sans SC', sans-serif" font-size="11" font-weight="500" fill="#5a6272" text-anchor="middle">基础算法</text><line x1="1064" y1="922" x2="1384" y2="922" stroke="#e7e9f0" stroke-width="1"/><g transform="translate(1064 956)"><rect x="0" y="-16" width="149.37" height="32" fill="#edeefe" rx="10" stroke="#d8ddfc" stroke-width="1"/><g transform="translate(14 -8) scale(0.67)" fill="none" stroke="#4f46e5" stroke-width="2.7" stroke-linecap="round" stroke-linejoin="round"><path d="M12 3.5l1.9 5.4 5.4 1.9-5.4 1.9L12 18.1l-1.9-5.4-5.4-1.9 5.4-1.9L12 3.5z"/><path d="M18.8 15.6l.8 2.2 2.2.8-2.2.8-.8 2.2-.8-2.2-2.2-.8 2.2-.8.8-2.2z"/></g><text x="82.69" y="4.59" font-family="Inter, 'PingFang SC', 'Microsoft YaHei', 'Noto Sans SC', sans-serif" font-size="13.5" font-weight="600" fill="#4f46e5" text-anchor="middle">编辑 / AI 优化</text></g><rect x="1221.37" y="940" width="78" height="32" fill="#f1f3f7" rx="16" stroke="#e7e9f0" stroke-width="1"/><text x="1260.37" y="960.08" font-family="Inter, 'PingFang SC', 'Microsoft YaHei', 'Noto Sans SC', sans-serif" font-size="12" font-weight="500" fill="#5a6272" text-anchor="middle">设为主简历</text><rect x="1307.37" y="940" width="42" height="32" fill="#f1f3f7" rx="16" stroke="#e7e9f0" stroke-width="1"/><text x="1328.37" y="960.08" font-family="Inter, 'PingFang SC', 'Microsoft YaHei', 'Noto Sans SC', sans-serif" font-size="12" font-weight="500" fill="#dc2626" text-anchor="middle">删除</text></svg>